{
  "accessors": [
    {
      "bufferView": 2,
      "componentType": 5126,
      "count": 1142,
      "max": [
        0.042750999331474304,
        -0.05233500152826309,
        1.828436017036438
      ],
      "min": [
        -0.09198299795389175,
        -0.15122200548648834,
        1.6941529512405396
      ],
      "type": "VEC3"
    },
    {
      "bufferView": 2,
      "byteOffset": 13704,
      "componentType": 5126,
      "count": 1142,
      "max": [
        0.9639050960540771,
        0.40618202090263367,
        0.998315155506134
      ],
      "min": [
        -0.9915701746940613,
        -0.9984170198440552,
        -0.9998454451560974
      ],
      "type": "VEC3"
    },
    {
      "bufferView": 1,
      "componentType": 5126,
      "count": 1142,
      "max": [
        0.5227050185203552,
        0.7068790197372437
      ],
      "min": [
        0.4521479904651642,
        0.6096799969673157
      ],
      "type": "VEC2"
    },
    {
      "bufferView": 0,
      "componentType": 5125,
      "count": 6480,
      "type": "SCALAR"
    },
    {
      "bufferView": 2,
      "byteOffset": 27408,
      "componentType": 5126,
      "count": 46,
      "max": [
        0.022377999499440193,
        -0.09763099998235703,
        1.822100043296814
      ],
      "min": [
        -0.07599800080060959,
        -0.11406199634075165,
        1.7954339981079102
      ],
      "type": "VEC3"
    },
    {
      "bufferView": 2,
      "byteOffset": 27960,
      "componentType": 5126,
      "count": 46,
      "max": [
        0.6844656467437744,
        -0.414188414812088,
        0.3341938853263855
      ],
      "min": [
        -0.9039746522903442,
        -0.9945650100708008,
        -0.3080855906009674
      ],
      "type": "VEC3"
    },
    {
      "bufferView": 1,
      "byteOffset": 9136,
      "componentType": 5126,
      "count": 46,
      "max": [
        0.4597170054912567,
        0.9948469996452332
      ],
      "min": [
        0.42602500319480896,
        0.9822700023651123
      ],
      "type": "VEC2"
    },
    {
      "bufferView": 0,
      "byteOffset": 25920,
      "componentType": 5125,
      "count": 192,
      "type": "SCALAR"
    },
    {
      "bufferView": 2,
      "byteOffset": 28512,
      "componentType": 5126,
      "count": 115,
      "max": [
        -0.001104000024497509,
        -0.07824499905109406,
        1.7707070112228394
      ],
      "min": [
        -0.06571900099515915,
        -0.13200399279594421,
        1.72849702835083
      ],
      "type": "VEC3"
    },
    {
      "bufferView": 2,
      "byteOffset": 29892,
      "componentType": 5126,
      "count": 115,
      "max": [
        0.989236056804657,
        0.7719827890396118,
        0.9904611110687256
      ],
      "min": [
        -0.9755495190620422,
        -0.9993760585784912,
        -0.987147331237793
      ],
      "type": "VEC3"
    },
    {
      "bufferView": 1,
      "byteOffset": 9504,
      "componentType": 5126,
      "count": 115,
      "max": [
        0.6293950080871582,
        0.9964619874954224
      ],
      "min": [
        0.15722699463367462,
        0.7652590274810791
      ],
      "type": "VEC2"
    },
    {
      "bufferView": 0,
      "byteOffset": 26688,
      "componentType": 5125,
      "count": 480,
      "type": "SCALAR"
    },
    {
      "bufferView": 2,
      "byteOffset": 31272,
      "componentType": 5126,
      "count": 14971,
      "max": [
        0.4498859941959381,
        0.34040001034736633,
        1.776095986366272
      ],
      "min": [
        -0.5111690163612366,
        -0.3397589921951294,
        -0.028008999302983284
      ],
      "type": "VEC3"
    },
    {
      "bufferView": 2,
      "byteOffset": 210924,
      "componentType": 5126,
      "count": 14971,
      "max": [
        0.9998944997787476,
        0.9998794794082642,
        0.9998121857643127
      ],
      "min": [
        -0.9999057054519653,
        -0.999995231628418,
        -0.999981164932251
      ],
      "type": "VEC3"
    },
    {
      "bufferView": 1,
      "byteOffset": 10424,
      "componentType": 5126,
      "count": 14971,
      "max": [
        0.8120120167732239,
        0.9856929779052734
      ],
      "min": [
        0.004809999838471413,
        0.007325000129640102
      ],
      "type": "VEC2"
    },
    {
      "bufferView": 0,
      "byteOffset": 28608,
      "componentType": 5125,
      "count": 81540,
      "type": "SCALAR"
    },
    {
      "bufferView": 2,
      "byteOffset": 390576,
      "componentType": 5126,
      "count": 9991,
      "max": [
        0.38808199763298035,
        0.529118001461029,
        1.794057011604309
      ],
      "min": [
        -0.6579340100288391,
        -0.28172698616981506,
        -0.00013099999341648072
      ],
      "type": "VEC3"
    },
    {
      "bufferView": 2,
      "byteOffset": 510468,
      "componentType": 5126,
      "count": 9991,
      "max": [
        0.9999186992645264,
        0.9998533725738525,
        0.9998025298118591
      ],
      "min": [
        -0.9999573230743408,
        -0.9996361136436462,
        -0.999584972858429
      ],
      "type": "VEC3"
    },
    {
      "bufferView": 1,
      "byteOffset": 130192,
      "componentType": 5126,
      "count": 9991,
      "max": [
        0.9965819716453552,
        0.9971380233764648
      ],
      "min": [
        0.004062000196427107,
        0.004883000161498785
      ],
      "type": "VEC2"
    },
    {
      "bufferView": 0,
      "byteOffset": 354768,
      "componentType": 5125,
      "count": 58908,
      "type": "SCALAR"
    },
    {
      "bufferView": 2,
      "byteOffset": 630360,
      "componentType": 5126,
      "count": 11016,
      "max": [
        0.46964699029922485,
        0.43243101239204407,
        1.9144539833068848
      ],
      "min": [
        -0.583512008190155,
        -0.2914370000362396,
        1.3268300294876099
      ],
      "type": "VEC3"
    },
    {
      "bufferView": 2,
      "byteOffset": 762552,
      "componentType": 5126,
      "count": 11016,
      "max": [
        0.9999947547912598,
        0.9997482895851135,
        0.9999407529830933
      ],
      "min": [
        -0.9998867511749268,
        -0.9998485445976257,
        -0.9998469948768616
      ],
      "type": "VEC3"
    },
    {
      "bufferView": 1,
      "byteOffset": 210120,
      "componentType": 5126,
      "count": 11016,
      "max": [
        0.8554689884185791,
        0.9972230195999146
      ],
      "min": [
        0.5129389762878418,
        0.44287100434303284
      ],
      "type": "VEC2"
    },
    {
      "bufferView": 0,
      "byteOffset": 590400,
      "componentType": 5125,
      "count": 65376,
      "type": "SCALAR"
    },
    {
      "bufferView": 2,
      "byteOffset": 894744,
      "componentType": 5126,
      "count": 6592,
      "max": [
        0.3214559853076935,
        0.21989299356937408,
        1.1772149801254272
      ],
      "min": [
        -0.3298119902610779,
        -0.315201997756958,
        0.7071599960327148
      ],
      "type": "VEC3"
    },
    {
      "bufferView": 2,
      "byteOffset": 973848,
      "componentType": 5126,
      "count": 6592,
      "max": [
        0.9999740123748779,
        0.9999544620513916,
        0.9756012558937073
      ],
      "min": [
        -0.9999737739562988,
        -0.999956488609314,
        -0.9983295202255249
      ],
      "type": "VEC3"
    },
    {
      "bufferView": 1,
      "byteOffset": 298248,
      "componentType": 5126,
      "count": 6592,
      "max": [
        0.8205569982528687,
        0.9066780209541321
      ],
      "min": [
        0.6342769861221313,
        0.6306149959564209
      ],
      "type": "VEC2"
    },
    {
      "bufferView": 0,
      "byteOffset": 851904,
      "componentType": 5125,
      "count": 39456,
      "type": "SCALAR"
    },
    {
      "bufferView": 2,
      "byteOffset": 1052952,
      "componentType": 5126,
      "count": 7432,
      "max": [
        0.5041450262069702,
        0.3585300147533417,
        2.0042920112609863
      ],
      "min": [
        -0.1370519995689392,
        -0.15595699846744537,
        1.1125379800796509
      ],
      "type": "VEC3"
    },
    {
      "bufferView": 2,
      "byteOffset": 1142136,
      "componentType": 5126,
      "count": 7432,
      "max": [
        0.9999874830245972,
        0.9995465874671936,
        0.99969881772995
      ],
      "min": [
        -0.9999585151672363,
        -0.9996717572212219,
        -0.9989485740661621
      ],
      "type": "VEC3"
    },
    {
      "bufferView": 1,
      "byteOffset": 350984,
      "componentType": 5126,
      "count": 7432,
      "max": [
        0.8198239803314209,
        0.9954360127449036
      ],
      "min": [
        0.3928219974040985,
        0.5856630206108093
      ],
      "type": "VEC2"
    },
    {
      "bufferView": 0,
      "byteOffset": 1009728,
      "componentType": 5125,
      "count": 43164,
      "type": "SCALAR"
    },
    {
      "bufferView": 2,
      "byteOffset": 1231320,
      "componentType": 5126,
      "count": 3276,
      "max": [
        -0.3581030070781708,
        -0.010836999863386154,
        1.3051480054855347
      ],
      "min": [
        -0.613506019115448,
        -0.2871519923210144,
        0.960303008556366
      ],
      "type": "VEC3"
    },
    {
      "bufferView": 2,
      "byteOffset": 1270632,
      "componentType": 5126,
      "count": 3276,
      "max": [
        0.9993927478790283,
        0.9993003606796265,
        0.9978300929069519
      ],
      "min": [
        -0.9998247027397156,
        -0.9998531341552734,
        -0.9991496801376343
      ],
      "type": "VEC3"
    },
    {
      "bufferView": 1,
      "byteOffset": 410440,
      "componentType": 5126,
      "count": 3276,
      "max": [
        0.8198239803314209,
        0.8938599824905396
      ],
      "min": [
        0.6447759866714478,
        0.5856630206108093
      ],
      "type": "VEC2"
    },
    {
      "bufferView": 0,
      "byteOffset": 1182384,
      "componentType": 5125,
      "count": 19584,
      "type": "SCALAR"
    }
  ],
  "asset": {
    "extras": {
      "author": "Ahad4940 (https://sketchfab.com/Ahad4940)",
      "license": "CC-BY-4.0 (http://creativecommons.org/licenses/by/4.0/)",
      "source": "https://sketchfab.com/3d-models/ninja-batman-22bd7f43ca77403b931044e488a40211",
      "title": "Ninja Batman!"
    },
    "generator": "Sketchfab-11.58.0",
    "version": "2.0"
  },
  "bufferViews": [
    {
      "buffer": 0,
      "byteLength": 1260720,
      "name": "floatBufferViews",
      "target": 34963
    },
    {
      "buffer": 0,
      "byteLength": 436648,
      "byteOffset": 1260720,
      "byteStride": 8,
      "name": "floatBufferViews",
      "target": 34962
    },
    {
      "buffer": 0,
      "byteLength": 1309944,
      "byteOffset": 1697368,
      "byteStride": 12,
      "name": "floatBufferViews",
      "target": 34962
    }
  ],
  "buffers": [
    {
      "byteLength": 3007312,
      "uri": "scene.bin"
    }
  ],
  "materials": [
    {
      "doubleSided": true,
      "name": "22_skin_0.1_170_170",
      "pbrMetallicRoughness": {
        "baseColorFactor": [
          0.5156550111387467,
          0.3297461871163342,
          0.10426923928239178,
          1.0
        ],
        "metallicFactor": 0.0,
        "roughnessFactor": 0.6
      }
    },
    {
      "doubleSided": true,
      "name": "25_body_0.1_0_0",
      "pbrMetallicRoughness": {
        "baseColorFactor": [
          0.004220366466787754,
          0.003855749927072304,
          0.003855749927072304,
          1.0
        ],
        "metallicFactor": 0.0,
        "roughnessFactor": 0.6
      }
    },
    {
      "doubleSided": true,
      "name": "25_eyes_0.1_0_0",
      "pbrMetallicRoughness": {
        "metallicFactor": 0.0,
        "roughnessFactor": 0.0
      }
    },
    {
      "doubleSided": true,
      "name": "25_teeth_0.1_0_0",
      "pbrMetallicRoughness": {
        "metallicFactor": 0.0,
        "roughnessFactor": 0.6
      }
    }
  ],
  "meshes": [
    {
      "name": "Object_0",
      "primitives": [
        {
          "attributes": {
            "NORMAL": 1,
            "POSITION": 0,
            "TEXCOORD_0": 2
          },
          "indices": 3,
          "material": 0,
          "mode": 4
        }
      ]
    },
    {
      "name": "Object_1",
      "primitives": [
        {
          "attributes": {
            "NORMAL": 5,
            "POSITION": 4,
            "TEXCOORD_0": 6
          },
          "indices": 7,
          "material": 2,
          "mode": 4
        }
      ]
    },
    {
      "name": "Object_2",
      "primitives": [
        {
          "attributes": {
            "NORMAL": 9,
            "POSITION": 8,
            "TEXCOORD_0": 10
          },
          "indices": 11,
          "material": 3,
          "mode": 4
        }
      ]
    },
    {
      "name": "Object_3",
      "primitives": [
        {
          "attributes": {
            "NORMAL": 13,
            "POSITION": 12,
            "TEXCOORD_0": 14
          },
          "indices": 15,
          "material": 1,
          "mode": 4
        }
      ]
    },
    {
      "name": "Object_4",
      "primitives": [
        {
          "attributes": {
            "NORMAL": 17,
            "POSITION": 16,
            "TEXCOORD_0": 18
          },
          "indices": 19,
          "material": 1,
          "mode": 4
        }
      ]
    },
    {
      "name": "Object_5",
      "primitives": [
        {
          "attributes": {
            "NORMAL": 21,
            "POSITION": 20,
            "TEXCOORD_0": 22
          },
          "indices": 23,
          "material": 1,
          "mode": 4
        }
      ]
    },
    {
      "name": "Object_6",
      "primitives": [
        {
          "attributes": {
            "NORMAL": 25,
            "POSITION": 24,
            "TEXCOORD_0": 26
          },
          "indices": 27,
          "material": 1,
          "mode": 4
        }
      ]
    },
    {
      "name": "Object_7",
      "primitives": [
        {
          "attributes": {
            "NORMAL": 29,
            "POSITION": 28,
            "TEXCOORD_0": 30
          },
          "indices": 31,
          "material": 1,
          "mode": 4
        }
      ]
    },
    {
      "name": "Object_8",
      "primitives": [
        {
          "attributes": {
            "NORMAL": 33,
            "POSITION": 32,
            "TEXCOORD_0": 34
          },
          "indices": 35,
          "material": 1,
          "mode": 4
        }
      ]
    }
  ],
  "nodes": [
    {
      "children": [
        1
      ],
      "matrix": [
        1.0,
        0.0,
        0.0,
        0.0,
        0.0,
        2.220446049250313e-16,
        -1.0,
        0.0,
        0.0,
        1.0,
        2.220446049250313e-16,
        0.0,
        0.0,
        0.0,
        0.0,
        1.0
      ],
      "name": "Sketchfab_model"
    },
    {
      "children": [
        2,
        3,
        4,
        5,
        6,
        7,
        8,
        9,
        10
      ],
      "name": "Batman3.obj.cleaner.materialmerger.gles"
    },
    {
      "mesh": 0,
      "name": "Object_2"
    },
    {
      "mesh": 1,
      "name": "Object_3"
    },
    {
      "mesh": 2,
      "name": "Object_4"
    },
    {
      "mesh": 3,
      "name": "Object_5"
    },
    {
      "mesh": 4,
      "name": "Object_6"
    },
    {
      "mesh": 5,
      "name": "Object_7"
    },
    {
      "mesh": 6,
      "name": "Object_8"
    },
    {
      "mesh": 7,
      "name": "Object_9"
    },
    {
      "mesh": 8,
      "name": "Object_10"
    }
  ],
  "scene": 0,
  "scenes": [
    {
      "name": "Sketchfab_Scene",
      "nodes": [
        0
      ]
    }
  ]
}
