{
  "accessors": [
    {
      "bufferView": 2,
      "componentType": 5126,
      "count": 65532,
      "max": [
        2.745110034942627,
        -5.978551864624023,
        2.4379889965057373
      ],
      "min": [
        -2.992244005203247,
        -20.40790557861328,
        -3.1137540340423584
      ],
      "type": "VEC3"
    },
    {
      "bufferView": 2,
      "byteOffset": 786384,
      "componentType": 5126,
      "count": 65532,
      "max": [
        0.9999907612800598,
        0.9998891353607178,
        0.999988853931427
      ],
      "min": [
        -0.999982476234436,
        -0.9999628663063049,
        -0.9999984502792358
      ],
      "type": "VEC3"
    },
    {
      "bufferView": 1,
      "componentType": 5126,
      "count": 65532,
      "max": [
        0.8854960203170776,
        0.9165160059928894
      ],
      "min": [
        0.004095000214874744,
        1.1000000085914508e-05
      ],
      "type": "VEC2"
    },
    {
      "bufferView": 0,
      "componentType": 5125,
      "count": 354426,
      "type": "SCALAR"
    },
    {
      "bufferView": 2,
      "byteOffset": 1572768,
      "componentType": 5126,
      "count": 65532,
      "max": [
        2.8243329524993896,
        0.1728540062904358,
        4.331606864929199
      ],
      "min": [
        -2.8956990242004395,
        -17.766895294189453,
        -2.559688091278076
      ],
      "type": "VEC3"
    },
    {
      "bufferView": 2,
      "byteOffset": 2359152,
      "componentType": 5126,
      "count": 65532,
      "max": [
        0.9999715089797974,
        0.9996473789215088,
        0.9999951124191284
      ],
      "min": [
        -0.999982476234436,
        -0.9999995231628418,
        -0.9999956488609314
      ],
      "type": "VEC3"
    },
    {
      "bufferView": 1,
      "byteOffset": 524256,
      "componentType": 5126,
      "count": 65532,
      "max": [
        0.9999799728393555,
        0.934906005859375
      ],
      "min": [
        4.70000013592653e-05,
        0.0038660001009702682
      ],
      "type": "VEC2"
    },
    {
      "bufferView": 0,
      "byteOffset": 1417704,
      "componentType": 5125,
      "count": 335007,
      "type": "SCALAR"
    },
    {
      "bufferView": 2,
      "byteOffset": 3145536,
      "componentType": 5126,
      "count": 65532,
      "max": [
        2.8243329524993896,
        0.250467985868454,
        4.399600982666016
      ],
      "min": [
        -3.5730769634246826,
        -20.386720657348633,
        -3.107686996459961
      ],
      "type": "VEC3"
    },
    {
      "bufferView": 2,
      "byteOffset": 3931920,
      "componentType": 5126,
      "count": 65532,
      "max": [
        0.9999847412109375,
        0.9989677667617798,
        0.999988853931427
      ],
      "min": [
        -0.9999751448631287,
        -0.9999996423721313,
        -0.99992835521698
      ],
      "type": "VEC3"
    },
    {
      "bufferView": 1,
      "byteOffset": 1048512,
      "componentType": 5126,
      "count": 65532,
      "max": [
        0.9965370297431946,
        0.9329950213432312
      ],
      "min": [
        0.0006569999968633056,
        0.013314000330865383
      ],
      "type": "VEC2"
    },
    {
      "bufferView": 0,
      "byteOffset": 2757732,
      "componentType": 5125,
      "count": 321408,
      "type": "SCALAR"
    },
    {
      "bufferView": 2,
      "byteOffset": 4718304,
      "componentType": 5126,
      "count": 34102,
      "max": [
        2.5058510303497314,
        0.012544999830424786,
        4.388360023498535
      ],
      "min": [
        -3.2115700244903564,
        -10.604970932006836,
        -2.377194881439209
      ],
      "type": "VEC3"
    },
    {
      "bufferView": 2,
      "byteOffset": 5127528,
      "componentType": 5126,
      "count": 34102,
      "max": [
        0.9999920129776001,
        0.9989677667617798,
        0.9999821186065674
      ],
      "min": [
        -0.9999751448631287,
        -0.9999947547912598,
        -0.9999715685844421
      ],
      "type": "VEC3"
    },
    {
      "bufferView": 1,
      "byteOffset": 1572768,
      "componentType": 5126,
      "count": 34102,
      "max": [
        0.9999920129776001,
        0.9242389798164368
      ],
      "min": [
        0.0033770001027733088,
        0.06842000037431717
      ],
      "type": "VEC2"
    },
    {
      "bufferView": 0,
      "byteOffset": 4043364,
      "componentType": 5125,
      "count": 140820,
      "type": "SCALAR"
    }
  ],
  "asset": {
    "extras": {
      "author": "antoniofacciorusso98 (https://sketchfab.com/antoniofacciorusso98)",
      "license": "CC-BY-4.0 (http://creativecommons.org/licenses/by/4.0/)",
      "source": "https://sketchfab.com/3d-models/afrodite-cnidia-di-prassitele-41314180dd134971bb43dcf4098407e3",
      "title": "Afrodite Cnidia di Prassitele"
    },
    "generator": "Sketchfab-10.85.0",
    "version": "2.0"
  },
  "bufferViews": [
    {
      "buffer": 0,
      "byteLength": 4606644,
      "name": "floatBufferViews",
      "target": 34963
    },
    {
      "buffer": 0,
      "byteLength": 1845584,
      "byteOffset": 4606644,
      "byteStride": 8,
      "name": "floatBufferViews",
      "target": 34962
    },
    {
      "buffer": 0,
      "byteLength": 5536752,
      "byteOffset": 6452228,
      "byteStride": 12,
      "name": "floatBufferViews",
      "target": 34962
    }
  ],
  "buffers": [
    {
      "byteLength": 11988980,
      "uri": "scene.bin"
    }
  ],
  "images": [
    {
      "uri": "textures/Material_0_baseColor.jpeg"
    }
  ],
  "materials": [
    {
      "doubleSided": true,
      "name": "Material_0",
      "pbrMetallicRoughness": {
        "baseColorTexture": {
          "index": 0
        },
        "metallicFactor": 0.0
      }
    }
  ],
  "meshes": [
    {
      "name": "Object_0",
      "primitives": [
        {
          "attributes": {
            "NORMAL": 1,
            "POSITION": 0,
            "TEXCOORD_0": 2
          },
          "indices": 3,
          "material": 0,
          "mode": 4
        }
      ]
    },
    {
      "name": "Object_1",
      "primitives": [
        {
          "attributes": {
            "NORMAL": 5,
            "POSITION": 4,
            "TEXCOORD_0": 6
          },
          "indices": 7,
          "material": 0,
          "mode": 4
        }
      ]
    },
    {
      "name": "Object_2",
      "primitives": [
        {
          "attributes": {
            "NORMAL": 9,
            "POSITION": 8,
            "TEXCOORD_0": 10
          },
          "indices": 11,
          "material": 0,
          "mode": 4
        }
      ]
    },
    {
      "name": "Object_3",
      "primitives": [
        {
          "attributes": {
            "NORMAL": 13,
            "POSITION": 12,
            "TEXCOORD_0": 14
          },
          "indices": 15,
          "material": 0,
          "mode": 4
        }
      ]
    }
  ],
  "nodes": [
    {
      "children": [
        1
      ],
      "matrix": [
        1.0,
        2.2204460492503136e-16,
        -2.8327693431939985e-16,
        0.0,
        2.220446049250313e-16,
        -1.0,
        -4.440892098500626e-16,
        0.0,
        -2.832769343193999e-16,
        4.440892098500626e-16,
        -1.0,
        0.0,
        2.3869795029440866e-15,
        -9.435798645019533,
        10.721620559692381,
        1.0
      ],
      "name": "Sketchfab_model"
    },
    {
      "children": [
        2,
        3,
        4,
        5
      ],
      "name": "aphroba.obj.cleaner.materialmerger.gles"
    },
    {
      "mesh": 0,
      "name": "Object_2"
    },
    {
      "mesh": 1,
      "name": "Object_3"
    },
    {
      "mesh": 2,
      "name": "Object_4"
    },
    {
      "mesh": 3,
      "name": "Object_5"
    }
  ],
  "samplers": [
    {
      "magFilter": 9729,
      "minFilter": 9987,
      "wrapS": 10497,
      "wrapT": 10497
    }
  ],
  "scene": 0,
  "scenes": [
    {
      "name": "Sketchfab_Scene",
      "nodes": [
        0
      ]
    }
  ],
  "textures": [
    {
      "sampler": 0,
      "source": 0
    }
  ]
}
